# xmcd CD database file
#
# Track frame offsets:
#	150
#	26952
#	45997
#	74942
#	108035
#	127740
#	144152
#	151302
#	179410
#	203350
#	223320
#	245967
#	272027
#	299702
#	316562
#
# Disc length: 4400 seconds
#
# Revision: 0
# Processed by: cddbd v1.5PL3 Copyright (c) Steve Scherf et al.
# Submitted via: CDex 1.51
#
DISCID=e2112e0f
DTITLE=Whitney Houston - World Tour In Concert
DYEAR=1900
DGENRE=Pop
TTITLE0=I Wanna Dance With Somebody (Who Loves Me)
TTITLE1=So Emotional
TTITLE2=Saving All My Love For You
TTITLE3=How Will I Know
TTITLE4=My Name Is Not Susan
TTITLE5=Revelation Is Here
TTITLE6=He's Alright
TTITLE7=Mercy Mercy Me/What's Going On
TTITLE8=Who Do You Love
TTITLE9=I'm Your Baby Tonight
TTITLE10=I Will Always Love You
TTITLE11=I Have Nothing
TTITLE12=I Wanna Dance With Somebody (Who Loves Me)
TTITLE13=Saving All My Love For You
TTITLE14=How Will I Know
EXTD=
EXTT0=
EXTT1=
EXTT2=
EXTT3=
EXTT4=
EXTT5=
EXTT6=
EXTT7=
EXTT8=
EXTT9=
EXTT10=
EXTT11=
EXTT12=
EXTT13=
EXTT14=
PLAYORDER=
